<svg width="369" height="24" viewBox="0 0 369 24" fill="none" xmlns="http://www.w3.org/2000/svg">
<path d="M0.210007 23.37V0.969999H7.7C10.28 0.969999 12.43 1.43 14.13 2.36C15.84 3.29 17.1 4.59 17.92 6.26C18.74 7.93 19.15 9.9 19.15 12.16C19.15 14.42 18.74 16.39 17.92 18.06C17.1 19.73 15.83 21.04 14.13 21.96C12.42 22.89 10.28 23.35 7.7 23.35H0.210007V23.37ZM4.53 19.66H7.47C9.28 19.66 10.72 19.36 11.79 18.76C12.86 18.16 13.61 17.3 14.06 16.18C14.51 15.06 14.73 13.72 14.73 12.16C14.73 10.58 14.51 9.23 14.06 8.11C13.61 6.99 12.85 6.13 11.79 5.53C10.72 4.93 9.28 4.63 7.47 4.63H4.53V19.66Z" fill="#F8FCFF"/>
<path d="M21.36 23.37L29.52 0.969999H34.42L42.58 23.37H38L31.95 5.9L25.87 23.37H21.36ZM24.94 18.29L26.09 14.93H37.48L38.6 18.29H24.94Z" fill="#F8FCFF"/>
<path d="M53.2 23.76C51.58 23.76 50.13 23.48 48.86 22.93C47.59 22.38 46.59 21.56 45.87 20.5C45.15 19.44 44.76 18.14 44.72 16.63H49.3C49.32 17.29 49.49 17.89 49.81 18.42C50.13 18.95 50.57 19.38 51.14 19.68C51.7 19.99 52.38 20.14 53.17 20.14C53.85 20.14 54.44 20.03 54.95 19.8C55.45 19.58 55.85 19.26 56.13 18.86C56.42 18.46 56.56 17.98 56.56 17.42C56.56 16.78 56.4 16.25 56.08 15.82C55.76 15.39 55.33 15.03 54.78 14.73C54.24 14.43 53.61 14.16 52.89 13.91C52.17 13.66 51.43 13.41 50.67 13.16C48.88 12.56 47.52 11.78 46.61 10.82C45.69 9.86 45.23 8.59 45.23 7.01C45.23 5.67 45.55 4.51 46.19 3.55C46.83 2.59 47.73 1.85 48.88 1.34C50.03 0.83 51.34 0.57 52.82 0.57C54.33 0.57 55.66 0.83 56.8 1.35C57.94 1.87 58.85 2.63 59.52 3.61C60.19 4.59 60.55 5.74 60.59 7.07H55.95C55.93 6.58 55.78 6.11 55.52 5.68C55.25 5.24 54.88 4.89 54.42 4.62C53.95 4.35 53.4 4.22 52.76 4.22C52.2 4.2 51.7 4.28 51.24 4.48C50.78 4.67 50.42 4.95 50.17 5.33C49.91 5.7 49.79 6.17 49.79 6.72C49.79 7.25 49.92 7.7 50.17 8.06C50.43 8.42 50.79 8.74 51.26 9C51.73 9.27 52.28 9.51 52.92 9.74C53.56 9.96 54.25 10.19 55 10.43C56.13 10.81 57.16 11.27 58.09 11.79C59.02 12.31 59.76 12.99 60.31 13.82C60.86 14.65 61.14 15.75 61.14 17.11C61.14 18.28 60.84 19.37 60.23 20.37C59.62 21.37 58.73 22.18 57.56 22.8C56.38 23.45 54.93 23.76 53.2 23.76Z" fill="#F8FCFF"/>
<path d="M64.81 23.37V0.969999H69.13V23.37H64.81ZM68.56 13.68V10.19H79.66V13.68H68.56ZM78.93 23.37V0.969999H83.25V23.37H78.93Z" fill="#F8FCFF"/>
<path d="M87.66 23.37V0.969999H96.84C98.4 0.969999 99.71 1.22 100.78 1.71C101.85 2.2 102.65 2.88 103.2 3.74C103.74 4.6 104.02 5.6 104.02 6.73C104.02 7.86 103.78 8.81 103.3 9.58C102.82 10.35 102.17 10.94 101.36 11.36C100.55 11.78 99.67 12.02 98.74 12.08L99.22 11.73C100.24 11.77 101.16 12.05 101.96 12.55C102.76 13.05 103.39 13.72 103.85 14.55C104.31 15.38 104.54 16.29 104.54 17.27C104.54 18.47 104.26 19.52 103.69 20.44C103.12 21.36 102.29 22.08 101.19 22.6C100.09 23.12 98.75 23.38 97.17 23.38H87.66V23.37ZM91.98 10.32H96.14C97.27 10.32 98.13 10.06 98.73 9.55C99.33 9.04 99.63 8.31 99.63 7.37C99.63 6.45 99.33 5.73 98.73 5.21C98.13 4.69 97.26 4.43 96.11 4.43H91.98V10.32ZM91.98 19.85H96.49C97.64 19.85 98.54 19.58 99.18 19.05C99.82 18.52 100.14 17.75 100.14 16.75C100.14 15.75 99.81 14.96 99.15 14.4C98.49 13.84 97.58 13.55 96.43 13.55H91.98V19.85Z" fill="#F8FCFF"/>
<path d="M118.38 23.76C116.22 23.76 114.32 23.27 112.67 22.29C111.02 21.31 109.72 19.95 108.77 18.21C107.82 16.47 107.35 14.46 107.35 12.18C107.35 9.9 107.82 7.89 108.77 6.15C109.72 4.41 111.02 3.05 112.67 2.07C114.32 1.09 116.23 0.6 118.38 0.6C120.58 0.6 122.51 1.09 124.19 2.07C125.87 3.05 127.17 4.41 128.09 6.15C129.02 7.89 129.48 9.9 129.48 12.18C129.48 14.46 129.02 16.47 128.09 18.21C127.16 19.95 125.86 21.31 124.19 22.29C122.52 23.27 120.58 23.76 118.38 23.76ZM118.38 19.89C119.77 19.89 120.96 19.57 121.95 18.95C122.94 18.32 123.71 17.43 124.25 16.28C124.79 15.13 125.07 13.76 125.07 12.18C125.07 10.58 124.8 9.21 124.25 8.07C123.71 6.93 122.94 6.05 121.95 5.43C120.96 4.81 119.77 4.5 118.38 4.5C117.06 4.5 115.9 4.81 114.91 5.43C113.92 6.05 113.14 6.93 112.59 8.07C112.03 9.21 111.76 10.58 111.76 12.18C111.76 13.76 112.04 15.12 112.59 16.28C113.14 17.43 113.92 18.32 114.91 18.95C115.9 19.58 117.06 19.89 118.38 19.89Z" fill="#F8FCFF"/>
<path d="M131.66 23.37L139.82 0.969999H144.72L152.88 23.37H148.3L142.25 5.9L136.17 23.37H131.66ZM135.25 18.29L136.4 14.93H147.79L148.91 18.29H135.25Z" fill="#F8FCFF"/>
<path d="M155.79 23.37V0.969999H164.17C165.96 0.969999 167.45 1.28 168.63 1.9C169.81 2.52 170.69 3.35 171.27 4.38C171.85 5.42 172.13 6.56 172.13 7.82C172.13 9.01 171.85 10.13 171.28 11.16C170.71 12.2 169.84 13.03 168.66 13.66C167.48 14.29 165.96 14.6 164.1 14.6H160.1V23.37H155.79ZM160.11 11.47H163.89C165.21 11.47 166.18 11.15 166.8 10.51C167.42 9.87 167.73 9.03 167.73 7.98C167.73 6.94 167.43 6.11 166.82 5.5C166.21 4.89 165.24 4.59 163.89 4.59H160.11V11.47ZM167.41 23.37L162.8 13.51H167.47L172.33 23.37H167.41Z" fill="#F8FCFF"/>
<path d="M175.98 23.37V0.969999H183.47C186.05 0.969999 188.2 1.43 189.9 2.36C191.61 3.29 192.87 4.59 193.69 6.26C194.51 7.93 194.92 9.9 194.92 12.16C194.92 14.42 194.51 16.39 193.69 18.06C192.87 19.73 191.6 21.04 189.9 21.96C188.19 22.89 186.05 23.35 183.47 23.35H175.98V23.37ZM180.3 19.66H183.24C185.05 19.66 186.49 19.36 187.56 18.76C188.63 18.16 189.38 17.3 189.83 16.18C190.28 15.06 190.5 13.72 190.5 12.16C190.5 10.58 190.28 9.23 189.83 8.11C189.38 6.99 188.62 6.13 187.56 5.53C186.49 4.93 185.05 4.63 183.24 4.63H180.3V19.66Z" fill="#F8FCFF"/>
<path d="M206.16 23.37V0.969999H213.65C216.23 0.969999 218.38 1.43 220.08 2.36C221.79 3.29 223.05 4.59 223.87 6.26C224.69 7.93 225.1 9.9 225.1 12.16C225.1 14.42 224.69 16.39 223.87 18.06C223.05 19.73 221.78 21.04 220.08 21.96C218.37 22.89 216.23 23.35 213.65 23.35H206.16V23.37ZM210.48 19.66H213.42C215.23 19.66 216.67 19.36 217.74 18.76C218.81 18.16 219.56 17.3 220.01 16.18C220.46 15.06 220.68 13.72 220.68 12.16C220.68 10.58 220.46 9.23 220.01 8.11C219.56 6.99 218.8 6.13 217.74 5.53C216.67 4.93 215.23 4.63 213.42 4.63H210.48V19.66Z" fill="#F8FCFF"/>
<path d="M239.08 23.76C236.92 23.76 235.02 23.27 233.37 22.29C231.72 21.31 230.42 19.95 229.47 18.21C228.52 16.47 228.05 14.46 228.05 12.18C228.05 9.9 228.52 7.89 229.47 6.15C230.42 4.41 231.72 3.05 233.37 2.07C235.02 1.09 236.93 0.6 239.08 0.6C241.28 0.6 243.21 1.09 244.89 2.07C246.57 3.05 247.87 4.41 248.79 6.15C249.72 7.89 250.18 9.9 250.18 12.18C250.18 14.46 249.72 16.47 248.79 18.21C247.86 19.95 246.56 21.31 244.89 22.29C243.22 23.27 241.28 23.76 239.08 23.76ZM239.08 19.89C240.47 19.89 241.66 19.57 242.65 18.95C243.64 18.32 244.41 17.43 244.95 16.28C245.49 15.13 245.77 13.76 245.77 12.18C245.77 10.58 245.5 9.21 244.95 8.07C244.41 6.93 243.64 6.05 242.65 5.43C241.66 4.81 240.47 4.5 239.08 4.5C237.76 4.5 236.6 4.81 235.61 5.43C234.62 6.05 233.84 6.93 233.29 8.07C232.73 9.21 232.46 10.58 232.46 12.18C232.46 13.76 232.74 15.12 233.29 16.28C233.84 17.43 234.62 18.32 235.61 18.95C236.6 19.58 237.76 19.89 239.08 19.89Z" fill="#F8FCFF"/>
<path d="M259.92 23.37L268.08 0.969999H272.98L281.14 23.37H276.56L270.51 5.9L264.43 23.37H259.92ZM263.5 18.29L264.65 14.93H276.04L277.16 18.29H263.5Z" fill="#F8FCFF"/>
<path d="M284.04 23.37V0.969999H288.36V20.01H298.18V23.37H284.04Z" fill="#F8FCFF"/>
<path d="M310.6 23.76C308.96 23.76 307.46 23.43 306.12 22.77C304.78 22.11 303.71 21.12 302.92 19.79C302.13 18.47 301.74 16.78 301.74 14.73V0.969999H306.06V14.76C306.06 15.87 306.25 16.8 306.62 17.56C306.99 18.32 307.53 18.88 308.22 19.24C308.91 19.6 309.74 19.78 310.7 19.78C311.68 19.78 312.52 19.6 313.21 19.24C313.9 18.88 314.43 18.32 314.79 17.56C315.15 16.8 315.33 15.87 315.33 14.76V0.969999H319.65V14.73C319.65 16.78 319.24 18.46 318.43 19.79C317.62 21.11 316.53 22.11 315.15 22.77C313.77 23.43 312.27 23.76 310.6 23.76Z" fill="#F8FCFF"/>
<path d="M323.82 23.37V0.969999H328.14L338.44 16.43V0.969999H342.76V23.37H338.44L328.14 7.95V23.37H323.82Z" fill="#F8FCFF"/>
<path d="M357.48 23.76C355.32 23.76 353.42 23.27 351.77 22.29C350.12 21.31 348.82 19.95 347.87 18.21C346.92 16.47 346.45 14.46 346.45 12.18C346.45 9.9 346.92 7.89 347.87 6.15C348.82 4.41 350.12 3.05 351.77 2.07C353.42 1.09 355.33 0.6 357.48 0.6C359.68 0.6 361.61 1.09 363.29 2.07C364.97 3.05 366.27 4.41 367.19 6.15C368.12 7.89 368.58 9.9 368.58 12.18C368.58 14.46 368.12 16.47 367.19 18.21C366.26 19.95 364.96 21.31 363.29 22.29C361.62 23.27 359.68 23.76 357.48 23.76ZM357.48 19.89C358.87 19.89 360.06 19.57 361.05 18.95C362.04 18.32 362.81 17.43 363.35 16.28C363.89 15.13 364.17 13.76 364.17 12.18C364.17 10.58 363.9 9.21 363.35 8.07C362.81 6.93 362.04 6.05 361.05 5.43C360.06 4.81 358.87 4.5 357.48 4.5C356.16 4.5 355 4.81 354.01 5.43C353.02 6.05 352.24 6.93 351.69 8.07C351.13 9.21 350.86 10.58 350.86 12.18C350.86 13.76 351.14 15.12 351.69 16.28C352.24 17.43 353.02 18.32 354.01 18.95C355 19.58 356.16 19.89 357.48 19.89Z" fill="#F8FCFF"/>
</svg>
